<?xml version="1.0" ?><svg height="512" viewBox="0 0 512 512" width="512" xmlns="http://www.w3.org/2000/svg"><defs><style>
      .cls-1 {
        fill: none;
        stroke: #000;
        stroke-linecap: round;
        stroke-linejoin: round;
        stroke-width: 3px;
      }

      .cls-2 {
        fill: #fbae17;
      }
    </style></defs><title/><g data-name="Set v 2" id="Set_v_2"><g><path class="cls-1" d="M308.62,74.93C387.3,98.16,446,171.23,446,257.43c0,26.37-5.07,52.88-14.78,75.7"/><path class="cls-1" d="M404.74,344q-4.28,7.53-9.27,14.58"/><g><g><path class="cls-2" d="M309.28,75.54c-3.21-.54-6.42-1.09-9.63-1.62A192.13,192.13,0,0,0,254.13,72c-19,1.44-37.63,5.13-55.35,12.27-55.19,22.27-90.84,62.13-106.39,119.65a177,177,0,0,0-5.25,59.68c2.31,31.34,12,60.11,30.5,85.69a4.14,4.14,0,0,1,.79,2.62q0,12.93,0,25.86c0,.3,0,.61.08,1.15l6.83-2.88c3.47-1.48,6.94-2.94,10.38-4.48a1.67,1.67,0,0,1,2.14.37,158.77,158.77,0,0,0,51.84,31.94,176.81,176.81,0,0,0,43.68,10.43,180,180,0,0,0,35.42.6,144.65,144.65,0,0,0,68.52-23.77c20.26-13.43,36.33-30.89,49.2-51.4a194.25,194.25,0,0,0,12.43-23.25c.57-1.29,1-1.53,2.28-.82q14.44,7.95,29,15.75c1.14.61,1.28,1.11.78,2.28a194.78,194.78,0,0,1-85.13,92.55,183,183,0,0,1-56.11,19,200.42,200.42,0,0,1-43.82,2.52c-26.38-1.34-51.55-7.66-75-19.85C121.26,402.19,89.16,362,73.7,308.48a182.1,182.1,0,0,1-6.55-65.55c3.28-40.8,18.34-76.86,44.64-108.16a184.45,184.45,0,0,1,77.36-54.71,189.6,189.6,0,0,1,46.63-11,202.53,202.53,0,0,1,36.93-.66,177.39,177.39,0,0,1,35.91,6.56,5.46,5.46,0,0,1,.67.26Z"/><path class="cls-2" d="M298.54,262.88c0-9.39,0-18.32,0-27.24a32.47,32.47,0,0,1,.78-7.68,14.36,14.36,0,0,1,9.28-10.61c4.77-1.79,9.8-2.68,14.73-3.92.84-.21,1.16.08,1.11.93s0,1.64,0,2.45q0,38.33,0,76.65c0,6.08-2.25,10.94-7.77,13.84a15.1,15.1,0,0,1-19-3.61q-13-14.94-26-29.93c-.4-.46-.82-.92-1.27-1.42-.54.6-.28,1.25-.28,1.82q0,14.82.07,29.64a32.33,32.33,0,0,1-.59,6.94c-1.36,6.42-5.61,10.22-11.48,12.42-4.28,1.61-8.66,3-13,4.53-1.3.47-1.58.09-1.57-1.2q0-45.39,0-90.8c0-.77,0-1.44,1-1.72,5.26-1.43,10.37-3.46,15.74-4.47a13.16,13.16,0,0,1,12.86,4c8.56,9.07,16.53,18.63,24.42,28.27Z"/><path class="cls-2" d="M122.32,373.09c0-10.22,0-20.23,0-30.23,0-20.45.09-40.9.07-61.35a2.5,2.5,0,0,1,1.82-2.76q12.57-5.08,25-10.36c1.46-.61,1.63-.22,1.63,1.15,0,9.63,0,19.25,0,28.88v1.95a4.54,4.54,0,0,0,1.44-1.93q11.16-18.92,22.29-37.85a13.65,13.65,0,0,1,18-5.54c6.8,3.14,9.11,10.57,5.15,17.1-3.78,6.23-7.75,12.35-11.64,18.52-2.75,4.36-5.47,8.74-8.31,13-.78,1.19-.84,1.86.26,2.94,6,5.92,11.86,12,17.86,17.91a13.83,13.83,0,0,1,3.74,14.87c-1.8,5.84-6.23,9.05-12,10.2S177,348.74,173,344.55q-10.35-10.87-20.59-21.84a14.11,14.11,0,0,1-1.08-1.46l-.5.28v1.79q0,13.32,0,26.62a30.52,30.52,0,0,1-.66,6.18,11,11,0,0,1-6.77,8.26c-6.69,2.88-13.44,5.61-20.16,8.4C123,372.87,122.78,372.94,122.32,373.09Z"/><path class="cls-2" d="M410.7,249.59c0,4.91.06,9.82,0,14.73-.1,8.19-3.17,14.92-10,19.66-13.19,9.13-27.73,12.72-43.49,9.42-14.45-3-23.71-12-27-26.5s-1.6-28.73,5.68-41.85c7.82-14.08,20.43-21.85,35.85-25.24,10.37-2.28,20.75-2.14,30.87,1.47a12.09,12.09,0,0,1,6.31,18.3,9.6,9.6,0,0,1-10.21,4.5c-5.12-1-10.2-2-15.5-1.72-16.6.88-27.12,12.46-26.27,29.06a31,31,0,0,0,2,10.31c2.18,5.32,6,8.35,11.85,8.78a21,21,0,0,0,11.65-2.4,5.3,5.3,0,0,0,3.17-5.5,33.64,33.64,0,0,1-.05-4.71c.05-1.21-.42-1.36-1.44-1a20.57,20.57,0,0,1-5.72,1.11c-4.1.06-6.61-1.85-7.21-5.89-.55-3.68-.13-7.41-.22-11.12,0-.92.66-1,1.25-1.09l28.17-6.1c2.77-.6,5.54-1.15,8.29-1.8,1.44-.34,2.2-.4,2.14,1.59-.16,5.34,0,10.69,0,16Z"/><path class="cls-2" d="M235,236.39v2.15q0,38.22,0,76.45a41.37,41.37,0,0,1-.47,6.39c-1,6.58-5,10.83-10.87,13.45-5.61,2.52-11.51,4.32-17.28,6.44-.91.34-1.29.13-1.18-.86a5.42,5.42,0,0,0,0-.57q0-38.5,0-77a35.82,35.82,0,0,1,.72-6.93,17.17,17.17,0,0,1,10.11-13C222.08,240.16,228.47,238.49,235,236.39Z"/><path class="cls-2" d="M107.71,275.69V272.6q0-31.53-.14-63.06a2.41,2.41,0,0,1,1.88-2.69c6.9-2.68,13.7-5.62,20.71-8a25.08,25.08,0,0,1,8.51-1.41c9.2.09,14.62,6.6,13.16,15.72A21.3,21.3,0,0,1,145,225.58l-1.67,1.58c8.3,2.18,12.32,8.41,10.64,17.47a21.57,21.57,0,0,1-7.72,12.8,48.78,48.78,0,0,1-12.83,7.43c-8.15,3.44-16.29,6.93-24.43,10.4C108.64,275.4,108.29,275.49,107.71,275.69Zm17.44-29.78h0v4.72c0,3.85,0,3.86,3.52,2.21,3.3-1.55,6.05-3.69,7.05-7.38.77-2.83.92-5.74-1.54-7.88s-5.17-1.26-7.84-.28a1.61,1.61,0,0,0-1.21,1.81C125.21,241.38,125.15,243.65,125.15,245.91Zm-.16-18.6c4.78-1.78,8.55-4.2,9.49-9.34.41-2.22.35-4.47-1.84-5.92-1.61-1.07-5.62-.65-7.21.64a1.36,1.36,0,0,0-.44,1.18Z"/><path class="cls-2" d="M306.46,185.82c0,3.65.06,7.3,0,11a13.63,13.63,0,0,1-5.39,11.15c-8.38,6.32-17.85,9-28.2,7.18-8.82-1.56-14.71-7.14-17.17-15.66-3.62-12.46-2.12-24.49,5.18-35.37,6.11-9.12,15.21-13.39,25.92-14.52a34.12,34.12,0,0,1,11.27.36,18,18,0,0,1,2.87.89c4.27,1.8,6.07,5.44,4.89,9.77-1.06,3.88-4.48,6-8.95,5.41-2.87-.36-5.74-.87-8.64-.47-7.27,1-12,5.15-14.31,12a26.6,26.6,0,0,0-.66,15.79c1.86,6.77,9,9.53,15,5.93a4,4,0,0,0,2.24-3.85c-.07-1.57-.09-3.15,0-4.72.05-1.23-.21-1.74-1.58-1.3a12.92,12.92,0,0,1-3.33.58,4,4,0,0,1-4.41-3.72c-.2-2.44-.07-4.9-.11-7.36,0-.74.43-.92,1-1.06q11.58-2.59,23.15-5.25c1.13-.26,1.22.26,1.21,1.16,0,4,0,8.06,0,12.09Z"/><path class="cls-2" d="M224.05,207.06c0,5.62,0,10.71,0,15.81a9.7,9.7,0,0,1-6.21,9.67c-3.5,1.5-7.18,2.59-10.8,3.87a3.85,3.85,0,0,1-.24-2.13c0-19.94,0-39.89,0-59.83,0-1.51.39-2.2,1.86-2.66,7.49-2.34,14.88-5,22.58-6.6a22.36,22.36,0,0,1,9.18,0c8.1,1.69,12.31,8.06,11.16,16.53A25.38,25.38,0,0,1,242.34,198c-1.17,1-1.14,1.51-.05,2.51,3.2,2.93,6.3,6,9.41,9,3.79,3.71,4,9.21.51,12.85a9.33,9.33,0,0,1-13.09.09c-4.3-4.24-8.43-8.65-12.64-13C225.79,208.79,225.09,208.1,224.05,207.06Zm0-9.64c4.2-2.61,7.65-5.36,9.25-9.77.95-2.61,1.41-5.42-.65-7.66s-4.73-1.43-7.24-.77c-.13,0-.24.09-.37.11-.77.09-1,.55-1,1.29C224.09,186.08,224.08,191.54,224.08,197.42Z"/><path class="cls-2" d="M155.8,211.79c0-7,0-14.09,0-21.14a1.74,1.74,0,0,1,1.4-2c2.86-.95,5.61-2.25,8.57-2.85,4.57-.93,7.32,1.34,7.4,6,.06,3.08,0,6.17,0,9.25q0,12.07,0,24.16a20,20,0,0,0,.07,2.45c.25,2,.58,4.19,2.88,4.87a6.08,6.08,0,0,0,6.48-2,9.36,9.36,0,0,0,2.22-6.27c.12-5.35.13-10.69.15-16,0-8.94.07-17.87,0-26.81,0-1.61.49-2.33,2-2.76,2.71-.78,5.31-1.93,8.11-2.43,3.84-.69,6.39,1.12,7,5a15.42,15.42,0,0,1,.11,2.26q0,16.89,0,33.79a48.09,48.09,0,0,1-1.28,11.4c-2.46,10-9.3,15.6-18.65,18.7a32.49,32.49,0,0,1-10.71,1.93c-8.2-.13-14.19-5.36-15.39-13.49a34.39,34.39,0,0,1-.37-5.07c0-6.29,0-12.59,0-18.88Z"/><path class="cls-2" d="M368.68,172.54V184c0,1.07,0,2.14,0,3.21-.11,5-2.84,8.23-7.8,9.16-2.35.44-4.71.81-7,1.4-1.59.4-2.05.1-2-1.61.07-14.6.05-29.2.06-43.8,0-4.72.05-9.44,0-14.16,0-1.13.34-1.56,1.4-1.72,7.76-1.21,15.44-2.91,23.27-3.68s15.13,2.76,17.75,8.87c3,6.94,1.55,13.4-3.09,19.22a19.26,19.26,0,0,1-4.57,4.21c-1.23.79-1,1.32-.17,2.24q4.77,5.22,9.43,10.56c3.61,4.11,3.59,9.08,0,12.25a8.79,8.79,0,0,1-12.93-.89C378.23,183.88,373.68,178.41,368.68,172.54Zm-.15-18h0v7.15c0,.65-.07,1.38,1,.85,3.74-1.86,7-4.21,8.41-8.39,1.83-5.5-1.13-9-6.85-8.19a6,6,0,0,1-.93.14c-1.26,0-1.74.54-1.68,1.85C368.6,150.14,368.53,152.34,368.53,154.54Z"/><path class="cls-2" d="M310.63,176c0-9.76,0-19.51,0-29.27,0-1.31.35-1.83,1.65-2.11q16.47-3.6,33.06-6.7c2.25-.42,2.27-.39,2.24,1.82s0,4.29-.19,6.41c-.37,3.62-2.08,5.3-5.68,6-4.12.83-8.23,1.75-12.37,2.52-1.25.23-1.65.74-1.59,2,.09,2,.11,4,0,6-.08,1.46.3,1.86,1.79,1.52,4.84-1.11,9.71-2.05,14.55-3.16,1.43-.34,1.91-.09,1.81,1.43-.13,1.88,0,3.78-.06,5.66-.13,3.45-1.47,5.19-4.86,6-3.84.94-7.72,1.76-11.6,2.5-1.25.24-1.66.71-1.63,2,.08,2.83.08,5.67,0,8.5-.07,1.54.31,1.92,1.88,1.55,5.68-1.33,11.41-2.48,17.1-3.81,1.28-.3,1.52,0,1.48,1.19-.08,2,0,4-.05,6-.12,4.51-2.18,7-6.53,8l-23.51,5.32c-2,.44-3.95.81-5.86,1.4-1.44.43-1.68,0-1.68-1.37.05-9.81,0-19.63,0-29.45Z"/><path class="cls-2" d="M376.52,301.2c-27.55,6.61-54.8,14.26-81.89,22.51-24.39,7.43-48.61,15.34-72.57,24.08-12.8,4.67-25.53,9.54-38,15-3.2,1.39-3.83,3.9-1.72,6.67a24.07,24.07,0,0,0,4.43,4.36,63,63,0,0,0,16,8.7,137.56,137.56,0,0,0,47.5,9.09,156.86,156.86,0,0,0,58.53-10.22c22.53-8.43,42-21.18,57-40.28a95.91,95.91,0,0,0,17.28-33C384.35,303.59,383.47,299.53,376.52,301.2Z"/><path class="cls-2" d="M349.3,117.76a27.42,27.42,0,0,0-3.91-5.07A68.66,68.66,0,0,0,322.92,97.4C306,89.9,288.18,87.19,270.67,86.92c-7,.12-13.15.39-19.28,1.09-5.55.64-11.08,1.47-16.57,2.59-19.38,4-37.53,10.77-53.48,22.76C164.41,126.09,152,142.17,145,162.28c-1.19,3.43-2.38,6.91-2.41,10.61,0,2.76,1.4,3.9,4.1,3.44a10.41,10.41,0,0,0,1.45-.41c4.71-1.57,9.4-3.17,14.11-4.71,30.15-9.86,60.29-19.7,91.05-27.53,23-5.86,46.14-11.2,69.46-15.7,8-1.55,16.06-2.94,24.08-4.5C349.84,122.88,350.85,120.44,349.3,117.76Z"/></g><g><path class="cls-1" d="M309.28,75.54c-3.21-.54-6.42-1.09-9.63-1.62A192.13,192.13,0,0,0,254.13,72c-19,1.44-37.63,5.13-55.35,12.27-55.19,22.27-90.84,62.13-106.39,119.65a177,177,0,0,0-5.25,59.68c2.31,31.34,12,60.11,30.5,85.69a4.14,4.14,0,0,1,.79,2.62q0,12.93,0,25.86c0,.3,0,.61.08,1.15l6.83-2.88c3.47-1.48,6.94-2.94,10.38-4.48a1.67,1.67,0,0,1,2.14.37,158.77,158.77,0,0,0,51.84,31.94,176.81,176.81,0,0,0,43.68,10.43,180,180,0,0,0,35.42.6,144.65,144.65,0,0,0,68.52-23.77c20.26-13.43,36.33-30.89,49.2-51.4a194.25,194.25,0,0,0,12.43-23.25c.57-1.29,1-1.53,2.28-.82q14.44,7.95,29,15.75c1.14.61,1.28,1.11.78,2.28a194.78,194.78,0,0,1-85.13,92.55,183,183,0,0,1-56.11,19,200.42,200.42,0,0,1-43.82,2.52c-26.38-1.34-51.55-7.66-75-19.85C121.26,402.19,89.16,362,73.7,308.48a182.1,182.1,0,0,1-6.55-65.55c3.28-40.8,18.34-76.86,44.64-108.16a184.45,184.45,0,0,1,77.36-54.71,189.6,189.6,0,0,1,46.63-11,202.53,202.53,0,0,1,36.93-.66,177.39,177.39,0,0,1,35.91,6.56,5.46,5.46,0,0,1,.67.26Z"/><path class="cls-1" d="M298.54,262.88c0-9.39,0-18.32,0-27.24a32.47,32.47,0,0,1,.78-7.68,14.36,14.36,0,0,1,9.28-10.61c4.77-1.79,9.8-2.68,14.73-3.92.84-.21,1.16.08,1.11.93s0,1.64,0,2.45q0,38.33,0,76.65c0,6.08-2.25,10.94-7.77,13.84a15.1,15.1,0,0,1-19-3.61q-13-14.94-26-29.93c-.4-.46-.82-.92-1.27-1.42-.54.6-.28,1.25-.28,1.82q0,14.82.07,29.64a32.33,32.33,0,0,1-.59,6.94c-1.36,6.42-5.61,10.22-11.48,12.42-4.28,1.61-8.66,3-13,4.53-1.3.47-1.58.09-1.57-1.2q0-45.39,0-90.8c0-.77,0-1.44,1-1.72,5.26-1.43,10.37-3.46,15.74-4.47a13.16,13.16,0,0,1,12.86,4c8.56,9.07,16.53,18.63,24.42,28.27Z"/><path class="cls-1" d="M122.32,373.09c0-10.22,0-20.23,0-30.23,0-20.45.09-40.9.07-61.35a2.5,2.5,0,0,1,1.82-2.76q12.57-5.08,25-10.36c1.46-.61,1.63-.22,1.63,1.15,0,9.63,0,19.25,0,28.88v1.95a4.54,4.54,0,0,0,1.44-1.93q11.16-18.92,22.29-37.85a13.65,13.65,0,0,1,18-5.54c6.8,3.14,9.11,10.57,5.15,17.1-3.78,6.23-7.75,12.35-11.64,18.52-2.75,4.36-5.47,8.74-8.31,13-.78,1.19-.84,1.86.26,2.94,6,5.92,11.86,12,17.86,17.91a13.83,13.83,0,0,1,3.74,14.87c-1.8,5.84-6.23,9.05-12,10.2S177,348.74,173,344.55q-10.35-10.87-20.59-21.84a14.11,14.11,0,0,1-1.08-1.46l-.5.28v1.79q0,13.32,0,26.62a30.52,30.52,0,0,1-.66,6.18,11,11,0,0,1-6.77,8.26c-6.69,2.88-13.44,5.61-20.16,8.4C123,372.87,122.78,372.94,122.32,373.09Z"/><path class="cls-1" d="M410.7,249.59c0,4.91.06,9.82,0,14.73-.1,8.19-3.17,14.92-10,19.66-13.19,9.13-27.73,12.72-43.49,9.42-14.45-3-23.71-12-27-26.5s-1.6-28.73,5.68-41.85c7.82-14.08,20.43-21.85,35.85-25.24,10.37-2.28,20.75-2.14,30.87,1.47a12.09,12.09,0,0,1,6.31,18.3,9.6,9.6,0,0,1-10.21,4.5c-5.12-1-10.2-2-15.5-1.72-16.6.88-27.12,12.46-26.27,29.06a31,31,0,0,0,2,10.31c2.18,5.32,6,8.35,11.85,8.78a21,21,0,0,0,11.65-2.4,5.3,5.3,0,0,0,3.17-5.5,33.64,33.64,0,0,1-.05-4.71c.05-1.21-.42-1.36-1.44-1a20.57,20.57,0,0,1-5.72,1.11c-4.1.06-6.61-1.85-7.21-5.89-.55-3.68-.13-7.41-.22-11.12,0-.92.66-1,1.25-1.09l28.17-6.1c2.77-.6,5.54-1.15,8.29-1.8,1.44-.34,2.2-.4,2.14,1.59-.16,5.34,0,10.69,0,16Z"/><path class="cls-1" d="M235,236.39v2.15q0,38.22,0,76.45a41.37,41.37,0,0,1-.47,6.39c-1,6.58-5,10.83-10.87,13.45-5.61,2.52-11.51,4.32-17.28,6.44-.91.34-1.29.13-1.18-.86a5.42,5.42,0,0,0,0-.57q0-38.5,0-77a35.82,35.82,0,0,1,.72-6.93,17.17,17.17,0,0,1,10.11-13C222.08,240.16,228.47,238.49,235,236.39Z"/><path class="cls-1" d="M107.71,275.69V272.6q0-31.53-.14-63.06a2.41,2.41,0,0,1,1.88-2.69c6.9-2.68,13.7-5.62,20.71-8a25.08,25.08,0,0,1,8.51-1.41c9.2.09,14.62,6.6,13.16,15.72A21.3,21.3,0,0,1,145,225.58l-1.67,1.58c8.3,2.18,12.32,8.41,10.64,17.47a21.57,21.57,0,0,1-7.72,12.8,48.78,48.78,0,0,1-12.83,7.43c-8.15,3.44-16.29,6.93-24.43,10.4C108.64,275.4,108.29,275.49,107.71,275.69Zm17.44-29.78h0v4.72c0,3.85,0,3.86,3.52,2.21,3.3-1.55,6.05-3.69,7.05-7.38.77-2.83.92-5.74-1.54-7.88s-5.17-1.26-7.84-.28a1.61,1.61,0,0,0-1.21,1.81C125.21,241.38,125.15,243.65,125.15,245.91Zm-.16-18.6c4.78-1.78,8.55-4.2,9.49-9.34.41-2.22.35-4.47-1.84-5.92-1.61-1.07-5.62-.65-7.21.64a1.36,1.36,0,0,0-.44,1.18Z"/><path class="cls-1" d="M306.46,185.82c0,3.65.06,7.3,0,11a13.63,13.63,0,0,1-5.39,11.15c-8.38,6.32-17.85,9-28.2,7.18-8.82-1.56-14.71-7.14-17.17-15.66-3.62-12.46-2.12-24.49,5.18-35.37,6.11-9.12,15.21-13.39,25.92-14.52a34.12,34.12,0,0,1,11.27.36,18,18,0,0,1,2.87.89c4.27,1.8,6.07,5.44,4.89,9.77-1.06,3.88-4.48,6-8.95,5.41-2.87-.36-5.74-.87-8.64-.47-7.27,1-12,5.15-14.31,12a26.6,26.6,0,0,0-.66,15.79c1.86,6.77,9,9.53,15,5.93a4,4,0,0,0,2.24-3.85c-.07-1.57-.09-3.15,0-4.72.05-1.23-.21-1.74-1.58-1.3a12.92,12.92,0,0,1-3.33.58,4,4,0,0,1-4.41-3.72c-.2-2.44-.07-4.9-.11-7.36,0-.74.43-.92,1-1.06q11.58-2.59,23.15-5.25c1.13-.26,1.22.26,1.21,1.16,0,4,0,8.06,0,12.09Z"/><path class="cls-1" d="M224.05,207.06c0,5.62,0,10.71,0,15.81a9.7,9.7,0,0,1-6.21,9.67c-3.5,1.5-7.18,2.59-10.8,3.87a3.85,3.85,0,0,1-.24-2.13c0-19.94,0-39.89,0-59.83,0-1.51.39-2.2,1.86-2.66,7.49-2.34,14.88-5,22.58-6.6a22.36,22.36,0,0,1,9.18,0c8.1,1.69,12.31,8.06,11.16,16.53A25.38,25.38,0,0,1,242.34,198c-1.17,1-1.14,1.51-.05,2.51,3.2,2.93,6.3,6,9.41,9,3.79,3.71,4,9.21.51,12.85a9.33,9.33,0,0,1-13.09.09c-4.3-4.24-8.43-8.65-12.64-13C225.79,208.79,225.09,208.1,224.05,207.06Zm0-9.64c4.2-2.61,7.65-5.36,9.25-9.77.95-2.61,1.41-5.42-.65-7.66s-4.73-1.43-7.24-.77c-.13,0-.24.09-.37.11-.77.09-1,.55-1,1.29C224.09,186.08,224.08,191.54,224.08,197.42Z"/><path class="cls-1" d="M155.8,211.79c0-7,0-14.09,0-21.14a1.74,1.74,0,0,1,1.4-2c2.86-.95,5.61-2.25,8.57-2.85,4.57-.93,7.32,1.34,7.4,6,.06,3.08,0,6.17,0,9.25q0,12.07,0,24.16a20,20,0,0,0,.07,2.45c.25,2,.58,4.19,2.88,4.87a6.08,6.08,0,0,0,6.48-2,9.36,9.36,0,0,0,2.22-6.27c.12-5.35.13-10.69.15-16,0-8.94.07-17.87,0-26.81,0-1.61.49-2.33,2-2.76,2.71-.78,5.31-1.93,8.11-2.43,3.84-.69,6.39,1.12,7,5a15.42,15.42,0,0,1,.11,2.26q0,16.89,0,33.79a48.09,48.09,0,0,1-1.28,11.4c-2.46,10-9.3,15.6-18.65,18.7a32.49,32.49,0,0,1-10.71,1.93c-8.2-.13-14.19-5.36-15.39-13.49a34.39,34.39,0,0,1-.37-5.07c0-6.29,0-12.59,0-18.88Z"/><path class="cls-1" d="M368.68,172.54V184c0,1.07,0,2.14,0,3.21-.11,5-2.84,8.23-7.8,9.16-2.35.44-4.71.81-7,1.4-1.59.4-2.05.1-2-1.61.07-14.6.05-29.2.06-43.8,0-4.72.05-9.44,0-14.16,0-1.13.34-1.56,1.4-1.72,7.76-1.21,15.44-2.91,23.27-3.68s15.13,2.76,17.75,8.87c3,6.94,1.55,13.4-3.09,19.22a19.26,19.26,0,0,1-4.57,4.21c-1.23.79-1,1.32-.17,2.24q4.77,5.22,9.43,10.56c3.61,4.11,3.59,9.08,0,12.25a8.79,8.79,0,0,1-12.93-.89C378.23,183.88,373.68,178.41,368.68,172.54Zm-.15-18h0v7.15c0,.65-.07,1.38,1,.85,3.74-1.86,7-4.21,8.41-8.39,1.83-5.5-1.13-9-6.85-8.19a6,6,0,0,1-.93.14c-1.26,0-1.74.54-1.68,1.85C368.6,150.14,368.53,152.34,368.53,154.54Z"/><path class="cls-1" d="M310.63,176c0-9.76,0-19.51,0-29.27,0-1.31.35-1.83,1.65-2.11q16.47-3.6,33.06-6.7c2.25-.42,2.27-.39,2.24,1.82s0,4.29-.19,6.41c-.37,3.62-2.08,5.3-5.68,6-4.12.83-8.23,1.75-12.37,2.52-1.25.23-1.65.74-1.59,2,.09,2,.11,4,0,6-.08,1.46.3,1.86,1.79,1.52,4.84-1.11,9.71-2.05,14.55-3.16,1.43-.34,1.91-.09,1.81,1.43-.13,1.88,0,3.78-.06,5.66-.13,3.45-1.47,5.19-4.86,6-3.84.94-7.72,1.76-11.6,2.5-1.25.24-1.66.71-1.63,2,.08,2.83.08,5.67,0,8.5-.07,1.54.31,1.92,1.88,1.55,5.68-1.33,11.41-2.48,17.1-3.81,1.28-.3,1.52,0,1.48,1.19-.08,2,0,4-.05,6-.12,4.51-2.18,7-6.53,8l-23.51,5.32c-2,.44-3.95.81-5.86,1.4-1.44.43-1.68,0-1.68-1.37.05-9.81,0-19.63,0-29.45Z"/><path class="cls-1" d="M376.52,301.2c-27.55,6.61-54.8,14.26-81.89,22.51-24.39,7.43-48.61,15.34-72.57,24.08-12.8,4.67-25.53,9.54-38,15-3.2,1.39-3.83,3.9-1.72,6.67a24.07,24.07,0,0,0,4.43,4.36,63,63,0,0,0,16,8.7,137.56,137.56,0,0,0,47.5,9.09,156.86,156.86,0,0,0,58.53-10.22c22.53-8.43,42-21.18,57-40.28a95.91,95.91,0,0,0,17.28-33C384.35,303.59,383.47,299.53,376.52,301.2Z"/><path class="cls-1" d="M349.3,117.76a27.42,27.42,0,0,0-3.91-5.07A68.66,68.66,0,0,0,322.92,97.4C306,89.9,288.18,87.19,270.67,86.92c-7,.12-13.15.39-19.28,1.09-5.55.64-11.08,1.47-16.57,2.59-19.38,4-37.53,10.77-53.48,22.76C164.41,126.09,152,142.17,145,162.28c-1.19,3.43-2.38,6.91-2.41,10.61,0,2.76,1.4,3.9,4.1,3.44a10.41,10.41,0,0,0,1.45-.41c4.71-1.57,9.4-3.17,14.11-4.71,30.15-9.86,60.29-19.7,91.05-27.53,23-5.86,46.14-11.2,69.46-15.7,8-1.55,16.06-2.94,24.08-4.5C349.84,122.88,350.85,120.44,349.3,117.76Z"/></g></g><g><path class="cls-1" d="M150.13,399.4q-3.6-2.61-7.07-5.41"/><path class="cls-1" d="M223.25,430.33A175.57,175.57,0,0,1,159.86,406"/><path class="cls-1" d="M339.48,410.54q-5.5,3-11.15,5.55"/><path class="cls-1" d="M401.64,354.13a178.29,178.29,0,0,1-56.08,52.94"/></g></g></g></svg>